<?xml version="1.0" standalone="no"?>
<!DOCTYPE svg PUBLIC "-//W3C//DTD SVG 20010904//EN"
 "http://www.w3.org/TR/2001/REC-SVG-20010904/DTD/svg10.dtd">
<svg version="1.0" xmlns="http://www.w3.org/2000/svg"
 width="50.000000pt" height="50.000000pt" viewBox="0 0 50.000000 50.000000"
 preserveAspectRatio="xMidYMid meet">

<g transform="translate(0.000000,50.000000) scale(0.100000,-0.100000)"
fill="#fcfaeb" stroke="none">
<path d="M167 486 c-55 -21 -103 -61 -134 -114 -24 -40 -28 -58 -28 -123 0
-67 4 -81 30 -125 99 -159 326 -164 425 -8 101 160 -4 368 -192 380 -39 3 -77
-1 -101 -10z m181 -35 c80 -41 122 -111 122 -201 0 -130 -90 -220 -220 -220
-130 0 -220 90 -220 220 0 90 43 160 125 203 43 23 146 22 193 -2z"/>
<path d="M140 353 c0 -4 21 -29 47 -55 l47 -48 -49 -50 c-27 -27 -46 -53 -42
-57 4 -4 30 15 57 42 l50 49 50 -49 c27 -27 53 -46 57 -42 4 4 -15 30 -42 57
l-49 50 49 50 c27 27 46 53 42 57 -4 4 -30 -15 -57 -42 l-50 -49 -48 47 c-46
45 -62 55 -62 40z"/>
</g>
</svg>
