<?xml version="1.0" encoding="UTF-8" standalone="no"?>
<svg
   version="1.0"
   width="393.42307pt"
   height="261.80679pt"
   viewBox="0 0 393.42307 261.80679"
   preserveAspectRatio="xMidYMid"
   id="svg362"
   sodipodi:docname="logo_inline_black.svg"
   inkscape:version="1.2.2 (b0a8486541, 2022-12-01, custom)"
   xmlns:inkscape="http://www.inkscape.org/namespaces/inkscape"
   xmlns:sodipodi="http://sodipodi.sourceforge.net/DTD/sodipodi-0.dtd"
   xmlns="http://www.w3.org/2000/svg"
   xmlns:svg="http://www.w3.org/2000/svg">
  <defs
     id="defs366" />
  <sodipodi:namedview
     id="namedview364"
     pagecolor="#ffffff"
     bordercolor="#000000"
     borderopacity="0.25"
     inkscape:showpageshadow="2"
     inkscape:pageopacity="0.0"
     inkscape:pagecheckerboard="0"
     inkscape:deskcolor="#d1d1d1"
     inkscape:document-units="pt"
     showgrid="false"
     inkscape:zoom="0.77777778"
     inkscape:cx="263.57143"
     inkscape:cy="212.78571"
     inkscape:window-width="1366"
     inkscape:window-height="704"
     inkscape:window-x="0"
     inkscape:window-y="0"
     inkscape:window-maximized="1"
     inkscape:current-layer="svg362" />
  <g
     transform="matrix(0.1,0,0,-0.1,-32.035524,388.80728)"
     fill="#000000"
     stroke="none"
     id="g360">
    <path
       id="path90"
       d="m 2199.4629,3887.3291 c -13.4062,-2.0781 -26.4561,-8.582 -37.4561,-20.332 -22.9997,-24 -30.0117,-84.9932 -12.0117,-102.9932 6,-6 -5,-10.0049 -30,-10.0049 -46.9997,-2 -83.9951,-24.0022 -109.9951,-67.0019 -38,-62 -15.0036,-154.9991 45.9961,-183.9991 28,-13.9997 32.0078,-19.9931 28.0078,-42.9931 -7,-32 19.9922,-64.0117 46.9922,-57.0117 14,4 11.0068,-3.9883 -12.9932,-32.9883 l -32.0068,-37.9981 -18.999,23.9942 c -67,85.9997 -209.9942,66.0046 -263.9942,-34.9951 -28.9997,-56 -29.9997,-114.0003 0,-165 29,-51 64.0013,-76.0127 116.001,-83.0127 41,-6 41.001,-5.9893 26.001,-28.9893 -24,-37 -19.0098,-100.0088 9.9902,-129.0088 13,-14 32.001,-24.9902 41.001,-24.9902 12,0 9,-8.0098 -15,-35.0098 -17,-20 -30.9961,-40.9883 -30.9961,-47.9883 0,-7 -10.9944,7.9883 -23.9941,32.9883 -14,28 -36.0079,53.0098 -58.0079,65.0098 l -35.9912,19.9951 23.9942,27.9932 c 32.9997,38.9997 31.0046,81.0078 -4.9951,118.0078 -31,29.9997 -61.0003,35.999 -105,18.999 -53,-20 -68.0049,-107.001 -25.0049,-146.001 18,-16 16.9941,-18 -21.0059,-45 -50.9997,-36.9997 -69.9902,-74.9954 -69.9902,-139.9951 0,-55.9997 25.9922,-111.0049 61.9922,-130.0049 19,-10 19.0058,-12.0039 -8.9942,-29.0039 -37.9997,-23 -45.0085,-49.9922 -24.0088,-91.9922 12,-25.9997 22.9991,-34.0058 48.9991,-36.0058 63.9997,-6 105.0107,48.0078 76.0107,103.0078 -12,24 -11.0068,24.9902 12.9932,24.9902 35.9997,0 92.01,29.001 110.0097,56.001 19,30 28.9873,30 36.9873,0 17,-67.9997 111.003,-124.9912 183.003,-110.9912 20.9997,3 48.9961,13.0019 60.9961,22.0019 27.9997,17 33.0009,14.9922 26.0009,-13.0078 -7,-26.9997 -67.9961,-44.9922 -105.9961,-31.9922 -39.9997,14 -89.9931,1.9883 -117.9931,-27.0117 l -22.9981,-23.9941 -29.0039,23.9941 c -81.9997,68.9997 -196.0097,-17.9934 -155.0097,-117.9931 17.9997,-43 35.0139,-51.9961 109.0136,-60.9961 72,-8 171.0003,-62.9991 195,-108.9991 13,-24.9997 16.9915,-68.0025 20.9912,-202.0019 2,-106.9997 0,-180.0069 -7.0019,-197.0069 l -11.001,-27.9931 h -362.9883 c -199.9994,0 -466.0103,-3.002 -590.0097,-7.002 l -226.99222,-6.0058 v -30 -29.0039 l 1267.99802,7.0019 c 696.9979,3 1277,8.001 1290,11.001 28,6 28.9961,39.0088 0.9961,54.0088 -15,9 -180.0051,9.999 -599.0039,3.999 l -577.998,-7.0019 -5.9912,38.9941 c -3,21 -8.001,89.0042 -11.001,149.0039 -3,60.9997 -8.001,146.9932 -11.001,192.9932 l -6.0059,82.0019 h 30.9961 c 16,0 47.002,-10.9902 67.002,-24.9902 91.9997,-62 218,-9.0063 240,102.9931 6,30 6.9983,31.001 52.998,26.001 83,-9 146.9991,54.9954 138.9991,139.9951 -3,22 -7.9864,48.001 -10.9864,56.001 -6,11 0.9903,16.0069 24.9903,17.0069 66.9997,4.9997 124.0019,77.9983 112.0019,142.998 -19,105.9997 -126.0042,141.9941 -209.0039,68.9941 -41.9997,-36.9997 -52.9919,-82.0012 -31.9922,-131.0009 l 15,-35.9912 -40.0049,-4.9952 c -38.9997,-5 -97.998,-48.0012 -97.998,-71.0009 -1,-28 -16.0071,-36.0088 -47.0068,-24.0088 -26,10 -31.9915,18.0022 -35.9912,52.0019 -8,61 -61.003,105.9961 -123.003,105.9961 -25,0 -53.0029,-3.9902 -63.0029,-9.9902 -16,-8 -16.9978,-6.0066 -7.9981,27.9931 6,21 7.003,58.9971 3.003,86.9971 -10,63 -61.9981,119.0108 -127.9981,136.0108 l -44.0039,11.997 15,41.9971 c 20,56.9997 3.0049,100.999 -49.9951,123.999 -35,16 -35.999,18.0039 -18.999,29.0039 11,6 26.9912,26.0042 35.9912,44.0039 9,18 17.999,33.9912 18.999,35.9912 1,2 19.0088,-6.999 39.0088,-18.999 31,-18 33.9902,-23.001 24.9902,-41.001 -6,-11.9997 -8.9873,-46.0029 -6.9873,-78.0029 5,-67.9997 33.9981,-113.001 82.9981,-131.001 26,-9.9997 34.9951,-18.9912 34.9951,-35.9912 0,-57.9997 47.9954,-103.0078 109.9951,-103.0078 28,0 30,-2.9912 30,-35.9912 0,-75.9997 69.0059,-127 141.0059,-105 64.9997,19 96.0046,93.9893 70.0049,163.9893 -9,21.9997 -6.0105,25.0058 28.9892,36.0058 110.9997,33 122.0063,181.0049 17.0069,220.0049 -69,26 -157.002,-35.0071 -157.002,-107.0068 0,-20 4.0049,-44.002 10.0049,-52.002 6,-9 4.9968,-17.0019 -3.0029,-22.0019 -21,-13 -37.002,-8.9949 -37.002,10.0048 0,9 -9.0059,35.001 -21.0059,56.001 -20.9997,39 -15.997,55.001 18.003,56.001 22.9997,0 81.0029,66.0071 93.0029,107.0068 12,40 13.999,40.9932 33.999,27.9932 23,-17 79,-19.9951 105,-4.9951 12,6 28.9993,4.9931 48.999,-2.0069 63,-23.9997 113.0027,32.9974 78.003,86.9971 -11,17 -26,25.0049 -45,25.0049 -22,0 -31.001,7 -41.001,30 -15,35 -54.9983,60 -97.998,60 -34,0 -77.9971,-30.9961 -86.9971,-60.9961 -7,-21 -7.0081,-21.0107 -28.0078,-1.0107 -12,11 -32.9961,25.0068 -45.9961,32.0068 l -22.9981,11.9971 34.9951,22.998 c 124.9997,84.9997 67.0085,299.0039 -80.9912,299.0039 -95.9997,0 -162.0117,-65.9934 -162.0117,-162.9931 v -56.001 h -53.9941 c -46,0 -53,1.9961 -45,15.9961 4,9 6.0029,25.0019 3.0029,37.0019 -4,15 1.9912,24.9981 20.9912,37.9981 62,39.9997 75.0117,138.9944 27.0117,203.9941 -21.9997,29 -22.0029,30 -3.0029,30 32,0 63.999,34.0088 63.999,69.0088 0,51 -43.3213,84.5596 -83.54,78.3252 z M 2343.75,3325.0049 c 3,1.25 8.2559,-1.0059 17.2559,-6.0059 16.9997,-9 18.998,-12.9951 7.998,-19.9951 -22,-14 -29.0039,-10.999 -29.0039,11.001 0,9 0.75,13.75 3.75,15 z" />
    <path
       id="path94"
       d="m 2442.6563,3784.1748 c -15.157,0.038 -30.4659,-6.7442 -39.6534,-21.1816 -14,-21 -14.0039,-24.9991 0.9961,-48.9991 32,-46.9999 96.9981,-16.9872 82.9981,38.0127 -5.625,20.8125 -24.8533,32.1197 -44.3408,32.168 z" />
    <path
       d="m 2695,3619 c -10,-30 18,-58 40,-39 22,18 15,54 -12,58 -15,2 -23,-3 -28,-19 z"
       id="path104" />
    <path
       d="m 2706,3433 c -8,-21 17,-48 38,-40 9,4 16,18 16,32 0,20 -5,25 -24,25 -13,0 -27,-8 -30,-17 z"
       id="path112" />
    <path
       d="m 2871,3101 c -8,-15 -7,-23 5,-35 21,-22 56,-3 52,27 -4,30 -43,35 -57,8 z"
       id="path128" />
    <path
       d="m 2942,2901 c -15,-9 -13,-53 3,-58 6,-2 20,3 30,11 16,12 18,19 9,32 -13,22 -25,26 -42,15 z"
       id="path136" />
    <path
       d="m 1538,2849 c -22,-13 -24,-62 -2,-79 25,-21 68,-1 72,33 6,48 -29,71 -70,46 z"
       id="path140" />
    <path
       d="m 1152,2603 c -29,-12 -46,-69 -52,-173 l -5,-105 -28,-3 c -37,-4 -33,-36 5,-40 26,-3 26,-4 33,-110 13,-208 19,-247 35,-247 13,0 14,14 10,85 -2,47 -4,128 -5,180 0,94 0,95 25,98 47,6 54,10 39,28 -8,10 -22,14 -40,10 -24,-5 -27,-2 -33,33 -7,48 8,177 24,196 19,23 50,18 78,-15 15,-16 30,-30 34,-30 11,0 10,38 -2,60 -15,28 -82,47 -118,33 z"
       id="path164" />
    <path
       id="path168"
       d="m 510.33691,2580.3662 c -23.42575,-0.018 -48.08791,-7.6143 -71.33789,-23.3642 -133.99986,-90 -162.99304,-494.9982 -42.99316,-607.9981 34.99996,-33 90.99223,-40.0068 136.99219,-17.0068 58.99994,28.9999 146.99707,165.0069 146.99707,227.0068 0,48 -23.99417,27.996 -53.99414,-44.0039 C 590.00101,2031.0001 557.00289,1987.999 513.00293,1968.999 420.00302,1925.9991 360,2022.9943 360,2213.9941 c 0,190.9998 61.00106,326.001 146.00098,326.001 37.99996,0 74.0039,-28.9893 74.0039,-58.9892 0,-30 11.00099,-51.0059 26.00098,-51.0059 18.99998,0 17.98924,53 -1.01074,90 -19.99998,39.375 -55.61528,60.3955 -94.65821,60.3662 z" />
    <path
       d="m 2957,2573 c -17,-17 -3,-125 54,-408 45,-222 78,-280 121,-207 30,52 158,521 158,582 0,36 -27,42 -35,8 -69,-310 -139,-568 -155,-568 -19,0 -110,449 -110,544 0,33 -20,62 -33,49 z"
       id="path170" />
    <path
       d="m 3356,2565 c -19,-20 -20,-26 -3,-49 26,-36 84,4 61,42 -15,23 -38,26 -58,7 z"
       id="path172" />
    <path
       d="m 1433,2471 c -46,-42 -54,-61 -25,-61 23,0 102,67 102,86 0,25 -34,14 -77,-25 z"
       id="path176" />
    <path
       d="m 2807,2413 c -12,-12 -7,-50 8,-63 12,-10 20,-9 40,4 27,18 32,35 13,54 -13,13 -50,16 -61,5 z"
       id="path180" />
    <path
       d="m 3639,2381 c -40,-25 -57,-45 -116,-137 -10,-16 -12,-9 -12,42 -1,62 -19,103 -39,90 -9,-5 -12,-67 -12,-205 0,-170 2,-200 16,-212 24,-20 44,14 44,76 0,145 108,335 192,335 23,0 56,-44 69,-92 5,-21 12,-100 14,-174 4,-144 8,-162 31,-143 22,18 26,66 15,195 -11,135 -29,192 -73,229 -39,33 -74,32 -129,-4 z"
       id="path182" />
    <path
       d="m 3367,2394 c -9,-9 -8,-227 1,-346 7,-84 22,-123 41,-102 5,5 6,106 2,229 -5,187 -8,220 -21,223 -9,1 -19,0 -23,-4 z"
       id="path186" />
    <path
       d="m 3994,2381 c -41,-25 -91,-105 -105,-170 -33,-154 27,-257 149,-255 76,0 134,31 172,90 78,123 52,252 -65,323 -59,36 -106,40 -151,12 z m 132,-46 c 130,-76 104,-287 -42,-335 -101,-34 -177,47 -159,168 15,105 76,192 132,192 15,0 45,-11 69,-25 z"
       id="path188" />
    <path
       d="m 875,2376 c -81,-35 -165,-182 -173,-300 -3,-62 -1,-75 20,-106 19,-28 31,-36 60,-38 21,-2 46,2 57,8 30,15 77,89 104,161 28,75 32,68 42,-67 7,-97 13,-117 33,-105 9,5 9,42 1,167 -13,189 -15,204 -33,204 -13,0 -30,-37 -57,-125 -50,-165 -122,-242 -174,-185 -45,50 16,252 98,326 37,34 42,36 88,30 41,-6 49,-4 49,9 0,16 -38,35 -68,35 -9,-1 -30,-7 -47,-14 z"
       id="path190" />
    <path
       d="m 1395,2371 c -65,-39 -110,-158 -102,-263 10,-120 61,-184 144,-181 74,3 185,87 169,129 -9,22 -22,17 -51,-22 -33,-44 -81,-74 -117,-74 -57,0 -108,77 -108,163 0,22 5,25 55,29 62,5 106,37 131,95 44,103 -30,180 -121,124 z m 93,-59 c 6,-65 -74,-144 -129,-127 -23,8 -24,24 -3,73 24,58 63,93 99,90 26,-3 30,-7 33,-36 z"
       id="path192" />
    <path
       d="m 1417,1573 c -14,-13 -7,-33 11,-33 24,0 32,8 25,26 -5,15 -25,19 -36,7 z"
       id="path230" />
    <path
       id="path232"
       d="m 2575.0049,1579.9951 c -13,0 -15,-23.0001 -15,-150 0,-126.9999 2,-150 15,-150 8,0 15,7.0069 15,17.0069 0,13.9999 1.9912,13.997 20.9912,-3.003 26,-23 88.0098,-23 125.0098,0 90.9999,61 48.9999,206.001 -60,206.001 -23,0 -51.9991,-6.9961 -63.9991,-15.9961 -21.9999,-15 -22.0019,-15.0097 -22.0019,39.9902 0,43 -3,56.001 -15,56.001 z m 99.2431,-104.1211 c 17.25,-1.125 34.7452,-10.376 53.7452,-27.876 34.9999,-32.9999 30.0097,-89.0029 -9.9903,-123.0029 -36.9999,-31 -71,-27.999 -105,11.001 -33.9999,38 -31.0058,86.0039 8.9942,119.0039 18,15 35.001,21.999 52.2509,20.874 z" />
    <path
       id="path234"
       d="m 1238.9941,1500 c -6,0 -26,-34 -45,-75 -18.9999,-41 -35.998,-75 -37.998,-75 -2,0 -14.001,25.9932 -26.001,57.9932 -37.9999,95.9999 -43.9981,96.0009 -82.998,11.0009 l -34.9951,-73.9892 -15.99614,39.9902 c -27.99997,68.9999 -51.00978,107.9981 -65.00977,112.9981 -9.99999,3 -11.99804,-0.9893 -7.99804,-13.9893 12.99998,-43.9999 76.00098,-187.0068 86.00095,-197.0068 7,-7 20.0079,12.003 43.0078,63.0029 l 33.9991,72.9932 32.9882,-70.9864 c 18,-39.9999 36.0088,-72.0117 39.0088,-72.0117 7,0 91.9922,198.003 91.9922,213.0029 0,4 -5.001,7.002 -11.001,7.002 z" />
    <path
       id="path236"
       d="m 1433.54,1498.4912 c -3.4218,-0.4219 -7.2929,-5.498 -11.5429,-15.498 -9,-23 -9,-172.9962 0,-195.9961 17,-40 28.0078,-1.0019 28.0078,97.998 0,74.2499 -6.1992,114.7617 -16.4649,113.4961 z" />
    <path
       id="path238"
       d="m 1652.6221,1499.502 c -2.625,0 -4.6172,-3.503 -7.6172,-10.503 -10,-26.9999 -0.999,-212.0058 11.001,-216.0058 8,-3 12.9961,22.0029 15.9961,78.0029 3,69.9999 5.997,83.0049 26.997,100.0049 13,10 34.0069,18.999 47.0069,18.999 37.9999,0 53.9941,-34.9972 53.9941,-116.9971 0,-59.9999 2.9961,-73.0078 15.9961,-73.0078 14,0 14.9971,13.0108 11.9971,91.0108 -3,80.9999 -5.9971,92.9951 -26.9971,109.9951 -27,22 -66.001,23.9951 -101.001,4.9951 -21,-12 -25.9912,-11.9971 -35.9912,3.0029 -5.5,7 -8.7568,10.503 -11.3818,10.503 z" />
    <path
       id="path240"
       d="m 2132.0801,1498.4326 c -22.9395,1.2188 -46.711,-4.3066 -68.086,-17.4316 -91.9998,-56 -48.9919,-210.9961 58.0079,-210.9961 34.9998,0 94.9931,28.9883 102.9931,47.9883 12,30.9998 -15.001,37.0086 -41.001,9.0088 -15.9998,-17 -34.998,-26.9971 -52.998,-26.9971 -35,0 -80.9912,34.9961 -80.9912,60.9961 0,17 7.9953,18.999 94.9951,18.999 104.9998,0 108.9951,3.0002 79.9951,60 -18.75,35.625 -54.6827,56.4014 -92.915,58.4326 z M 2125.0049,1470 c 12,0 33.999,-9.0059 48.999,-21.0059 14,-10.9998 26.001,-25 26.001,-30 0,-5 -34.0002,-8.9941 -75,-8.9941 -41,0 -75,3.9941 -75,8.9941 0,16 52,51.0059 75,51.0059 z" />
    <path
       id="path242"
       d="m 3174.5508,1501.5674 c -5.5188,1.1218 -12.8565,-3.877 -22.544,-13.5645 -9,-9 -15.0088,-9 -24.0088,0 -6.9999,7 -32.001,11.9971 -56.0009,11.9971 -37,0 -50.003,-5.9991 -78.003,-33.999 -26.9999,-27 -33.999,-41.9971 -33.999,-71.9971 0,-88.9999 76.0099,-143.0097 155.0098,-110.0098 26,11 40.9931,13.0059 42.9931,6.0059 2,-5 10.003,-10.0049 18.003,-10.0049 11,0 14.0039,22.0099 14.0039,110.0098 0,76.9999 -3.3128,109.0945 -15.4541,111.5625 z m -92.9297,-31.4356 c 16.9375,-0.6875 34.1299,-6.6308 49.3799,-19.1308 31.9999,-26 32.996,-92.003 0.9961,-123.003 -44,-44.9999 -122.9922,-20.0028 -136.9922,41.9971 -12.75,57 35.8037,102.1992 86.6162,100.1367 z" />
    <path
       id="path244"
       d="m 3383.9941,1500 c -10.9999,0 -13.9892,-22.0059 -13.9892,-111.0059 0,-99.9999 1.9883,-109.9921 17.9883,-106.9921 14,3 18.0019,17.0049 22.0019,85.0048 5,84 11.004,99 44.0039,105 29,5 31.999,27.9932 3.999,27.9932 -12.9999,0 -30.0019,-5.9971 -37.0019,-11.9971 -11,-10 -14.0029,-10 -18.0029,0 -3,6 -10.9991,11.9971 -18.9991,11.9971 z" />
  </g>
</svg>
